<?xml version="1.0" encoding="utf-8"?>
<!-- Generator: Adobe Illustrator 24.3.0, SVG Export Plug-In . SVG Version: 6.00 Build 0)  -->
<svg version="1.1" id="Layer_1" xmlns="http://www.w3.org/2000/svg" xmlns:xlink="http://www.w3.org/1999/xlink" x="0px" y="0px"
	 viewBox="0 0 1446.5 437.4" style="enable-background:new 0 0 1446.5 437.4;" xml:space="preserve">
<style type="text/css">
	.st0{fill:#4A4BCD;}
	.st1{fill:#2D9BBD;}
	.st2{fill:#333333;}
	@media (prefers-color-scheme: dark){
		.st2{fill:#FBF7F0;}
	}
	.st3{fill:#2E5BC1;}
</style>
<g>
	<g>
		<path class="st0" d="M298.4,338.8c-5.5,0-7.5-3.7-4.5-8.3l69-103.5c3.1-4.6,3.1-12.1,0-16.6l-69-103.5c-3.1-4.6-1-8.3,4.5-8.3
			h40.1c5.5,0,12.5,3.7,15.5,8.3l149.1,223.7c3.1,4.6,1,8.3-4.5,8.3h-40.1c-5.5,0-12.5-3.7-15.5-8.3l-39-58.5c-3.1-4.6-8-4.6-11.1,0
			l-39,58.4c-3.1,4.6-10,8.3-15.5,8.3H298.4z"/>
	</g>
	<g>
		<g>
			<path class="st0" d="M191.5,330.5c-3.1,4.6-1,8.3,4.5,8.3h2.4c5.5,0,14.5,0,20,0h40c5.5,0,12.5-3.7,15.5-8.3l66.7-100.1
				c3.1-4.6,1-8.3-4.5-8.3h-62.5c-5.5,0-12.5,3.7-15.5,8.3L191.5,330.5z"/>
		</g>
		<g>
			<path class="st1" d="M273.9,106.8c-3.1-4.6-10-8.3-15.5-8.3h-62.5c-5.5,0-7.5,3.7-4.5,8.3l66.7,100.1c3.1,4.6,10,8.3,15.5,8.3
				h62.5c5.5,0,7.5-3.7,4.5-8.3L273.9,106.8z"/>
		</g>
	</g>
	<g>
		<path class="st2" d="M650.7,334.2c-16.7,0-32.4-2.5-47-7.6c-14.6-5-27.5-12.2-38.6-21.6c-11.2-9.3-19.9-20.5-26.1-33.6
			c-6.2-13.1-9.3-27.6-9.3-43.5c0-14.8,2.9-28.9,8.9-42.3c5.9-13.4,14.5-25.3,25.9-35.7s25.1-18.7,41-24.8c16-6.1,34.1-9.2,54.2-9.2
			c6.9,0,13.8,0.5,20.8,1.4c7,1,13.7,2.3,20.3,4c6.5,1.7,12.5,3.5,17.9,5.5c1.9,0.9,3.6,2,5,3.4s2.2,3.4,2.4,6
			c0.9,7.1,1.5,14,1.9,20.6c0.4,6.7,0.6,12.7,0.6,18c0,2.4-0.9,4-2.6,4.8c-1.7,0.9-3.6,0.9-5.6,0.2s-3.5-2.4-4.3-5
			c-1.5-4.9-3.3-9.9-5.3-14.8c-2-4.9-5.1-9.2-9.2-12.9c-4.3-4.3-10.3-7.8-17.9-10.6c-7.6-2.8-16.8-4.2-27.5-4.2
			c-10.9,0-20.9,2.4-29.8,7.1c-8.9,4.7-16.5,11.2-22.9,19.3c-6.3,8.2-11.2,17.4-14.6,27.7c-3.4,10.3-5.2,21-5.2,32.2
			c0,14.2,1.5,27.3,4.5,39.4c3,12.1,7.6,22.6,13.8,31.4s13.8,15.7,22.9,20.6c9,4.9,19.6,7.4,31.9,7.4c15.9,0,28.8-3.4,38.6-10.1
			c9.9-6.8,18.1-17.1,24.8-31.1c1.7-3.9,4.1-5.7,7.2-5.5c3.1,0.2,4.7,2,4.7,5.5c0,2.8-0.3,6.2-0.8,10.1c-0.5,4-1.3,8.2-2.4,12.7
			c-1.1,4.5-2.4,9.1-3.9,13.8c-0.9,2.6-2,4.6-3.4,6s-3.2,2.6-5.3,3.7c-8.2,3.4-17.8,6.2-29,8.4C676.2,333.1,664,334.2,650.7,334.2z"
			/>
		<path class="st2" d="M786.2,334.2c-5.8,0-11.2-1.4-16.1-4.2c-4.9-2.8-8.9-6.4-11.8-10.9c-2.9-4.5-4.3-9.4-4.3-14.8
			c0-7.3,2.3-13.4,6.9-18.3c4.6-4.9,11.4-9.3,20.4-13.2l28.6-12.6c4.3-1.9,6.9-3.6,7.9-5.2c1-1.5,1.4-4.3,1.4-8.4l0.3-18.3
			c0.2-6-0.9-10.8-3.2-14.3c-2.4-3.5-5.9-5.3-10.6-5.3c-2.8,0-5.6,0.6-8.4,1.8c-2.8,1.2-4.9,2.5-6.4,4c-0.6,0.9-1.1,1.9-1.4,3.1
			c-0.3,1.2-0.5,2.4-0.5,3.7s0.1,2.8,0.3,4.7c0.2,1.8,0.3,3.4,0.3,4.7s-1.7,3-5.2,5c-3.4,2-7.4,3.9-11.9,5.5s-8.4,2.4-11.6,2.4
			c-1.5,0-2.8-0.6-4-1.9c-1.2-1.3-1.8-2.9-1.8-4.8c0-3.4,1.2-6.8,3.5-10.1c2.4-3.3,6.2-7.1,11.6-11.4c5.6-4.7,11.7-8.9,18.3-12.6
			c6.6-3.6,13.2-6.5,19.8-8.7c6.5-2.1,12.1-3.2,16.6-3.2c11.6,0,20.8,3.7,27.7,11.1c6.9,7.4,10.1,17.2,9.7,29.5l-1.6,65
			c-0.2,4.9,0.6,9.1,2.6,12.6c1.9,3.4,4.3,5.2,7.1,5.2c4.1,0,7.6-1.4,10.6-4.2c0.6-0.6,1.3-1,1.9-1c1.1,0,2,0.3,2.7,1
			c0.8,0.6,1.1,1.5,1.1,2.6c0,2.6-1.9,5.9-5.8,10c-4.1,3.9-8.4,6.8-12.9,8.9c-4.5,2-9.2,3.1-14.2,3.1c-12,0-22-6.1-29.9-18.3h-0.6
			c-7.1,6.4-13.5,11.1-19.2,14C798.7,332.7,792.7,334.2,786.2,334.2z M805.5,313.2c2.4,0,4.3-0.4,5.8-1.1s3-2,4.5-3.7
			c0.6-0.9,1.2-2,1.6-3.4c0.4-1.4,0.6-3.1,0.6-5l1-23.2c0-2.1-0.3-3.5-1-4.2c-0.6-0.6-1.4-1-2.3-1c-0.4,0-1,0.1-1.6,0.3
			c-0.6,0.2-1.4,0.5-2.3,1c-6.2,3-10.8,6.1-13.8,9.2s-4.5,8.1-4.5,15c0,6.2,1.3,10.5,3.9,12.7S802.7,313.2,805.5,313.2z"/>
		<path class="st2" d="M974.2,334.2c-6.2,0-12-0.5-17.2-1.6c-5.3-1.1-10-2.1-14.3-3.2c-3.2-1.1-6.2-1.9-8.9-2.6
			c-2.7-0.6-4.9-1-6.6-1c-2.1,0-4.2,0.4-6.1,1.1c-1.9,0.8-3.8,1.8-5.5,3.1c-1.9,1.5-3.4,2.3-4.5,2.3c-1.9,0-3.4-0.4-4.3-1.3
			c-1-0.9-1.4-1.8-1.4-2.9c0-1.9,0.6-5.7,1.8-11.3c1.2-5.6,1.7-12.6,1.4-20.9l-1.3-143.2c0-5.6-0.8-10.6-2.4-15
			c-1.6-4.4-5-7.1-10.1-8.2c-1.1-0.2-2-0.8-2.7-1.6c-0.8-0.9-1.1-2-1.1-3.5c0-1.1,0.3-2,1-2.9c0.6-0.9,1.5-1.4,2.6-1.6
			c4.7-0.9,10.2-2.3,16.4-4.3s12.3-4.2,18.2-6.4c5.9-2.3,10.5-3.9,13.7-5c2.1-0.9,3.6-1.3,4.5-1.3c1.3,0,2.2,0.4,2.7,1.1
			c0.5,0.8,0.8,1.7,0.8,2.7c0,1.3-0.3,4-0.8,8c-0.5,4.1-0.8,8.2-0.8,12.2v68.8c0,2.8,0.2,5,0.6,6.6s1.2,2.4,2.3,2.4
			c6.6-4.5,13.6-8,20.8-10.5c7.2-2.5,14-3.7,20.4-3.7c11.2,0,21.2,2.9,30.3,8.7c9,5.8,16.1,13.7,21.4,23.8s7.9,21.5,7.9,34.1
			c0,15-3.3,28.4-10,40.1s-15.8,20.8-27.5,27.2C1003.5,330.9,989.9,334.2,974.2,334.2z M980,320.6c5.8,0,10.7-2.5,14.8-7.6
			c4.1-5,7.2-11.7,9.5-20.1s3.4-17.5,3.4-27.4c0-8.6-1.1-17.3-3.4-26.1c-2.3-8.8-5.8-16.1-10.6-22.1c-4.8-5.9-11-8.9-18.5-8.9
			c-3.9,0-8.4,0.6-13.5,1.8c-5.2,1.2-9.3,3.1-12.6,5.6v68.6c0,6.9,1.4,13.1,4.3,18.7s6.7,9.9,11.4,12.9
			C969.6,319.1,974.6,320.6,980,320.6z"/>
		<path class="st2" d="M1100.4,334.2c-5.8,0-11.2-1.4-16.1-4.2c-4.9-2.8-8.9-6.4-11.7-10.9c-2.9-4.5-4.3-9.4-4.3-14.8
			c0-7.3,2.3-13.4,6.9-18.3s11.4-9.3,20.4-13.2l28.6-12.6c4.3-1.9,6.9-3.6,7.9-5.2c1-1.5,1.4-4.3,1.4-8.4l0.3-18.3
			c0.2-6-0.9-10.8-3.2-14.3c-2.4-3.5-5.9-5.3-10.6-5.3c-2.8,0-5.6,0.6-8.4,1.8s-4.9,2.5-6.4,4c-0.6,0.9-1.1,1.9-1.4,3.1
			c-0.3,1.2-0.5,2.4-0.5,3.7s0.1,2.8,0.3,4.7c0.2,1.8,0.3,3.4,0.3,4.7s-1.7,3-5.2,5c-3.4,2-7.4,3.9-11.9,5.5s-8.4,2.4-11.6,2.4
			c-1.5,0-2.8-0.6-4-1.9c-1.2-1.3-1.8-2.9-1.8-4.8c0-3.4,1.2-6.8,3.5-10.1c2.4-3.3,6.2-7.1,11.6-11.4c5.6-4.7,11.7-8.9,18.3-12.6
			c6.6-3.6,13.2-6.5,19.8-8.7c6.5-2.1,12.1-3.2,16.6-3.2c11.6,0,20.8,3.7,27.7,11.1c6.9,7.4,10.1,17.2,9.7,29.5l-1.6,65
			c-0.2,4.9,0.6,9.1,2.6,12.6c1.9,3.4,4.3,5.2,7.1,5.2c4.1,0,7.6-1.4,10.6-4.2c0.6-0.6,1.3-1,1.9-1c1.1,0,2,0.3,2.7,1
			c0.7,0.6,1.1,1.5,1.1,2.6c0,2.6-1.9,5.9-5.8,10c-4.1,3.9-8.4,6.8-12.9,8.9c-4.5,2-9.2,3.1-14.2,3.1c-12,0-22-6.1-29.9-18.3h-0.6
			c-7.1,6.4-13.5,11.1-19.2,14C1112.9,332.7,1106.8,334.2,1100.4,334.2z M1119.7,313.2c2.4,0,4.3-0.4,5.8-1.1s3-2,4.5-3.7
			c0.6-0.9,1.2-2,1.6-3.4s0.6-3.1,0.6-5l1-23.2c0-2.1-0.3-3.5-1-4.2c-0.6-0.6-1.4-1-2.3-1c-0.4,0-1,0.1-1.6,0.3
			c-0.6,0.2-1.4,0.5-2.3,1c-6.2,3-10.8,6.1-13.8,9.2s-4.5,8.1-4.5,15c0,6.2,1.3,10.5,3.9,12.7S1116.9,313.2,1119.7,313.2z"/>
		<path class="st2" d="M1211.4,330.6c-1.9,0-3.5-0.4-4.7-1.1s-1.8-1.9-1.8-3.4c0-1.7,0.6-3.1,1.9-4c1.3-1,3.1-1.8,5.5-2.4
			c3.2-1.1,6.1-2.3,8.5-3.5c2.5-1.3,3.7-4.2,3.7-8.7V152.6c0-5.8-0.8-10.8-2.4-15.1s-5.1-7-10.5-8c-2.1-0.4-3.2-2-3.2-4.8
			s1-4.4,2.9-4.8c5.6-1.1,11.6-2.6,18-4.7c6.4-2,12.6-4.2,18.3-6.4c5.8-2.3,10.3-3.9,13.5-5c1.7-0.6,3.1-1,4.2-1
			c1.3,0,2.1,0.4,2.6,1.1c0.4,0.8,0.6,1.7,0.6,2.7c0,1.5-0.3,4.3-0.8,8.4s-0.9,8.7-1.1,13.8v178c0,4.7,1.2,7.7,3.7,8.9
			c2.5,1.2,5.3,2.3,8.5,3.4c2.4,0.9,4.2,1.7,5.5,2.6s1.9,2.1,1.9,3.9c0,1.5-0.6,2.6-1.8,3.4c-1.2,0.8-2.7,1.1-4.7,1.1
			c-4.1,0-8.1-0.1-12.1-0.3c-4-0.2-7.8-0.4-11.6-0.5c-3.8-0.1-7.6-0.2-11.4-0.2c-3.7,0-7.2,0.1-10.8,0.3c-3.5,0.2-7.1,0.5-10.8,0.8
			C1219.7,330.5,1215.7,330.6,1211.4,330.6z"/>
	</g>
	<g>
		<path class="st3" d="M212.6,176.5c2.4-1.2,3.6,0.7,2.7,4.3l-6,26.3c-0.8,3.7-0.4,9.2,1.1,12.2l10.3,21.8c1.4,3.1,0.6,5.5-1.9,5.7
			l-17.8,0.7c-2.5,0.1-5.7,2.9-7.3,6.2l-11,24.2c-1.5,3.5-3.4,3.1-4.1-0.7l-5.1-27.2c-0.7-3.7-3.3-7.7-5.8-8.7l-18.1-7.7
			c-2.5-1.1-2.8-4-0.6-6.4l15.9-17.3c2.2-2.4,4-7.5,4-11.5l0.3-28.4c0-4,1.8-5.2,3.8-3l14.5,16.8c2,2.3,5.6,3.1,8,1.9L212.6,176.5z"
			/>
	</g>
</g>
</svg>
