<?xml version="1.0" encoding="utf-8"?>
<!-- Generator: Adobe Illustrator 24.3.0, SVG Export Plug-In . SVG Version: 6.00 Build 0)  -->
<svg version="1.1" id="Layer_1" xmlns="http://www.w3.org/2000/svg" xmlns:xlink="http://www.w3.org/1999/xlink" x="0px" y="0px"
	 viewBox="0 0 1600 1600" style="enable-background:new 0 0 1600 1600;" xml:space="preserve">
<style type="text/css">
	.st0{fill:#4A4BCD;}
	.st1{fill:#2D9BBD;}
	.st2{fill:#2E5BC1;}
</style>
<g>
	<path class="st0" d="M690,1277.9c-21.9,0-29.8-14.7-17.9-33L946.6,833c12.3-18.3,12.3-48.1,0-66.1L672.1,355.1
		c-12.3-18.3-4-33,17.9-33h159.6c21.9,0,49.7,14.7,61.7,33l593.3,890.1c12.3,18.3,4,33-17.9,33H1327c-21.9,0-49.7-14.7-61.7-33
		l-155.2-232.8c-12.3-18.3-31.8-18.3-44.2,0l-155.2,232.4c-12.3,18.3-39.8,33-61.7,33H690z"/>
</g>
<g>
	<g>
		<path class="st0" d="M264.6,1244.9c-12.3,18.3-4,33,17.9,33h9.5c21.9,0,57.7,0,79.6,0h159.2c21.9,0,49.7-14.7,61.7-33l265.4-398.3
			c12.3-18.3,4-33-17.9-33H591.3c-21.9,0-49.7,14.7-61.7,33L264.6,1244.9z"/>
	</g>
	<g>
		<path class="st1" d="M592.5,354.8c-12.3-18.3-39.8-33-61.7-33H282.1c-21.9,0-29.8,14.7-17.9,33L529.6,753
			c12.3,18.3,39.8,33,61.7,33H840c21.9,0,29.8-14.7,17.9-33L592.5,354.8z"/>
	</g>
</g>
<g>
	<path class="st2" d="M348.6,632.1c9.4-5,14.3,2.8,10.8,17.1l-24,104.8c-3.3,14.9-1.5,36.6,4.4,48.6l41.1,86.9
		c5.7,12.2,2.4,21.9-7.5,22.5l-70.8,2.9c-10,0.3-22.9,11.4-29.1,24.6l-43.9,96.2c-6.2,13.8-13.6,12.4-16.2-2.8l-20.3-108.4
		c-2.8-14.8-13.2-30.6-22.9-34.8L98,859.1c-10-4.4-11.1-16-2.2-25.4l63.5-69c8.9-9.4,15.9-29.9,16-45.8l1.2-112.9
		c0.1-15.7,7-20.8,15-11.8l57.7,66.7c8,9.2,22.2,12.2,31.6,7.5L348.6,632.1z"/>
</g>
</svg>
