<?xml version="1.0" encoding="utf-8"?>
<!-- Generator: Adobe Illustrator 24.3.0, SVG Export Plug-In . SVG Version: 6.00 Build 0)  -->
<svg version="1.1" id="Layer_1" xmlns="http://www.w3.org/2000/svg" xmlns:xlink="http://www.w3.org/1999/xlink" x="0px" y="0px"
	 viewBox="0 0 600 600" style="enable-background:new 0 0 600 600;" xml:space="preserve">
<style type="text/css">
	.st0{fill:#4A4BCD;}
	.st1{fill:#2D9BBD;}
</style>
<g>
	<path class="st0" d="M266,472.6c-5.5,0-7.5-3.7-4.5-8.3L365.7,308c3.1-4.6,3.1-12.1,0-16.6L261.6,135.1c-3.1-4.6-1-8.3,4.5-8.3
		h66.5c5.5,0,12.5,3.7,15.5,8.3l219.4,329.2c3.1,4.6,1,8.3-4.5,8.3h-66.5c-5.5,0-12.5-3.7-15.5-8.3l-60.9-91.4
		c-3.1-4.6-8-4.6-11.1,0L348,464.2c-3.1,4.6-10,8.3-15.5,8.3H266z"/>
</g>
<g>
	<g>
		<path class="st0" d="M114.1,464.2c-3.1,4.6-1,8.3,4.5,8.3l12.2,0c5.5,0,14.5,0,20,0h66.5c5.5,0,12.5-3.7,15.5-8.3L333.6,313
			c3.1-4.6,1-8.3-4.5-8.3h-98.7c-5.5,0-12.5,3.7-15.5,8.3L114.1,464.2z"/>
	</g>
	<g>
		<path class="st1" d="M232.8,135.1c-3.1-4.6-10-8.3-15.5-8.3h-98.7c-5.5,0-7.5,3.7-4.5,8.3l100.9,151.3c3.1,4.6,10,8.3,15.5,8.3
			h98.7c5.5,0,7.5-3.7,4.5-8.3L232.8,135.1z"/>
	</g>
</g>
<g>
	<path class="st0" d="M97.7,234.9c1.5-3,3.9-3,5.3,0l17.5,35.4c1.5,3,5.3,5.8,8.6,6.2l39.1,5.7c3.3,0.5,4,2.7,1.6,5.1l-28.3,27.6
		c-2.4,2.3-3.8,6.8-3.3,10.1l6.7,39c0.6,3.3-1.4,4.7-4.3,3.1l-35-18.4c-2.9-1.5-7.7-1.5-10.6,0l-35,18.4c-2.9,1.5-4.9,0.1-4.3-3.1
		l6.7-39c0.6-3.3-0.9-7.8-3.3-10.1l-28.3-27.6c-2.4-2.3-1.6-4.6,1.6-5.1l39.1-5.7c3.3-0.5,7.1-3.3,8.6-6.2L97.7,234.9z"/>
</g>
</svg>
