<?xml version="1.0" encoding="utf-8"?>
<!-- Generator: Adobe Illustrator 24.3.0, SVG Export Plug-In . SVG Version: 6.00 Build 0)  -->
<svg version="1.1" id="Layer_1" xmlns="http://www.w3.org/2000/svg" xmlns:xlink="http://www.w3.org/1999/xlink" x="0px" y="0px"
	 viewBox="0 0 1600 459" style="enable-background:new 0 0 1600 459;" xml:space="preserve">
<style type="text/css">
	.st0{fill:#4A4BCD;}
	.st1{fill:#2D9BBD;}
	.st2{fill:#333333;}
</style>
<g>
	<path class="st0" d="M391,350.1c-5.5,0-7.5-3.7-4.5-8.3l69-103.5c3.1-4.6,3.1-12.1,0-16.6l-69-103.5c-3.1-4.6-1-8.3,4.5-8.3h40.1
		c5.5,0,12.5,3.7,15.5,8.3l149.1,223.7c3.1,4.6,1,8.3-4.5,8.3h-40.1c-5.5,0-12.5-3.7-15.5-8.3l-39-58.5c-3.1-4.6-8-4.6-11.1,0
		l-39,58.4c-3.1,4.6-10,8.3-15.5,8.3H391z"/>
</g>
<g>
	<g>
		<path class="st0" d="M284.1,341.8c-3.1,4.6-1,8.3,4.5,8.3l2.4,0c5.5,0,14.5,0,20,0H351c5.5,0,12.5-3.7,15.5-8.3l66.7-100.1
			c3.1-4.6,1-8.3-4.5-8.3h-62.5c-5.5,0-12.5,3.7-15.5,8.3L284.1,341.8z"/>
	</g>
	<g>
		<path class="st1" d="M366.5,118.1c-3.1-4.6-10-8.3-15.5-8.3h-62.5c-5.5,0-7.5,3.7-4.5,8.3l66.7,100.1c3.1,4.6,10,8.3,15.5,8.3
			h62.5c5.5,0,7.5-3.7,4.5-8.3L366.5,118.1z"/>
	</g>
</g>
<g>
	<path class="st0" d="M270.2,186.5c1.5-3,3.9-3,5.3,0l10.5,21.4c1.5,3,5.3,5.8,8.6,6.2l23.6,3.4c3.3,0.5,4,2.7,1.6,5.1l-17,16.6
		c-2.4,2.3-3.8,6.8-3.3,10.1l4,23.5c0.6,3.3-1.4,4.7-4.3,3.1l-21.1-11.1c-2.9-1.5-7.7-1.5-10.6,0l-21.1,11.1
		c-2.9,1.5-4.9,0.1-4.3-3.1l4-23.5c0.6-3.3-0.9-7.8-3.3-10.1l-17-16.6c-2.4-2.3-1.6-4.6,1.6-5.1l23.6-3.4c3.3-0.5,7.1-3.3,8.6-6.2
		L270.2,186.5z"/>
</g>
<g>
	<path class="st2" d="M743.3,345.5c-16.7,0-32.4-2.5-47-7.6c-14.6-5-27.5-12.2-38.6-21.6c-11.2-9.3-19.9-20.5-26.1-33.6
		c-6.2-13.1-9.3-27.6-9.3-43.5c0-14.8,2.9-28.9,8.9-42.3c5.9-13.4,14.5-25.3,25.9-35.7c11.4-10.4,25.1-18.7,41-24.8
		c16-6.1,34.1-9.2,54.2-9.2c6.9,0,13.8,0.5,20.8,1.4c7,1,13.7,2.3,20.3,4c6.5,1.7,12.5,3.5,17.9,5.5c1.9,0.9,3.6,2,5,3.4
		c1.4,1.4,2.2,3.4,2.4,6c0.9,7.1,1.5,14,1.9,20.6c0.4,6.7,0.6,12.7,0.6,18c0,2.4-0.9,4-2.6,4.8c-1.7,0.9-3.6,0.9-5.6,0.2
		c-2-0.7-3.5-2.4-4.3-5c-1.5-4.9-3.3-9.9-5.3-14.8c-2-4.9-5.1-9.2-9.2-12.9c-4.3-4.3-10.3-7.8-17.9-10.6c-7.6-2.8-16.8-4.2-27.5-4.2
		c-10.9,0-20.9,2.4-29.8,7.1c-8.9,4.7-16.5,11.2-22.9,19.3c-6.3,8.2-11.2,17.4-14.6,27.7c-3.4,10.3-5.2,21-5.2,32.2
		c0,14.2,1.5,27.3,4.5,39.4c3,12.1,7.6,22.6,13.8,31.4c6.2,8.8,13.8,15.7,22.9,20.6c9,4.9,19.6,7.4,31.9,7.4
		c15.9,0,28.8-3.4,38.6-10.1c9.9-6.8,18.1-17.1,24.8-31.1c1.7-3.9,4.1-5.7,7.2-5.5c3.1,0.2,4.7,2,4.7,5.5c0,2.8-0.3,6.2-0.8,10.1
		c-0.5,4-1.3,8.2-2.4,12.7c-1.1,4.5-2.4,9.1-3.9,13.8c-0.9,2.6-2,4.6-3.4,6c-1.4,1.4-3.2,2.6-5.3,3.7c-8.2,3.4-17.8,6.2-29,8.4
		C768.8,344.4,756.6,345.5,743.3,345.5z"/>
	<path class="st2" d="M878.8,345.5c-5.8,0-11.2-1.4-16.1-4.2c-4.9-2.8-8.9-6.4-11.8-10.9c-2.9-4.5-4.3-9.4-4.3-14.8
		c0-7.3,2.3-13.4,6.9-18.3c4.6-4.9,11.4-9.3,20.4-13.2l28.6-12.6c4.3-1.9,6.9-3.6,7.9-5.2c1-1.5,1.4-4.3,1.4-8.4l0.3-18.3
		c0.2-6-0.9-10.8-3.2-14.3c-2.4-3.5-5.9-5.3-10.6-5.3c-2.8,0-5.6,0.6-8.4,1.8c-2.8,1.2-4.9,2.5-6.4,4c-0.6,0.9-1.1,1.9-1.4,3.1
		c-0.3,1.2-0.5,2.4-0.5,3.7c0,1.3,0.1,2.8,0.3,4.7c0.2,1.8,0.3,3.4,0.3,4.7c0,1.3-1.7,3-5.2,5c-3.4,2-7.4,3.9-11.9,5.5
		s-8.4,2.4-11.6,2.4c-1.5,0-2.8-0.6-4-1.9c-1.2-1.3-1.8-2.9-1.8-4.8c0-3.4,1.2-6.8,3.5-10.1c2.4-3.3,6.2-7.1,11.6-11.4
		c5.6-4.7,11.7-8.9,18.3-12.6c6.6-3.6,13.2-6.5,19.8-8.7c6.5-2.1,12.1-3.2,16.6-3.2c11.6,0,20.8,3.7,27.7,11.1
		c6.9,7.4,10.1,17.2,9.7,29.5l-1.6,65c-0.2,4.9,0.6,9.1,2.6,12.6c1.9,3.4,4.3,5.2,7.1,5.2c4.1,0,7.6-1.4,10.6-4.2
		c0.6-0.6,1.3-1,1.9-1c1.1,0,2,0.3,2.7,1c0.8,0.6,1.1,1.5,1.1,2.6c0,2.6-1.9,5.9-5.8,10c-4.1,3.9-8.4,6.8-12.9,8.9
		c-4.5,2-9.2,3.1-14.2,3.1c-12,0-22-6.1-29.9-18.3h-0.6c-7.1,6.4-13.5,11.1-19.2,14C891.3,344,885.3,345.5,878.8,345.5z
		 M898.1,324.5c2.4,0,4.3-0.4,5.8-1.1c1.5-0.7,3-2,4.5-3.7c0.6-0.9,1.2-2,1.6-3.4c0.4-1.4,0.6-3.1,0.6-5l1-23.2c0-2.1-0.3-3.5-1-4.2
		c-0.6-0.6-1.4-1-2.3-1c-0.4,0-1,0.1-1.6,0.3c-0.6,0.2-1.4,0.5-2.3,1c-6.2,3-10.8,6.1-13.8,9.2c-3,3.1-4.5,8.1-4.5,15
		c0,6.2,1.3,10.5,3.9,12.7S895.3,324.5,898.1,324.5z"/>
	<path class="st2" d="M1066.8,345.5c-6.2,0-12-0.5-17.2-1.6c-5.3-1.1-10-2.1-14.3-3.2c-3.2-1.1-6.2-1.9-8.9-2.6
		c-2.7-0.6-4.9-1-6.6-1c-2.1,0-4.2,0.4-6.1,1.1c-1.9,0.8-3.8,1.8-5.5,3.1c-1.9,1.5-3.4,2.3-4.5,2.3c-1.9,0-3.4-0.4-4.3-1.3
		c-1-0.9-1.4-1.8-1.4-2.9c0-1.9,0.6-5.7,1.8-11.3c1.2-5.6,1.7-12.6,1.4-20.9l-1.3-143.2c0-5.6-0.8-10.6-2.4-15
		c-1.6-4.4-5-7.1-10.1-8.2c-1.1-0.2-2-0.8-2.7-1.6c-0.8-0.9-1.1-2-1.1-3.5c0-1.1,0.3-2,1-2.9c0.6-0.9,1.5-1.4,2.6-1.6
		c4.7-0.9,10.2-2.3,16.4-4.3c6.2-2,12.3-4.2,18.2-6.4c5.9-2.3,10.5-3.9,13.7-5c2.1-0.9,3.6-1.3,4.5-1.3c1.3,0,2.2,0.4,2.7,1.1
		c0.5,0.8,0.8,1.7,0.8,2.7c0,1.3-0.3,4-0.8,8c-0.5,4.1-0.8,8.2-0.8,12.2V207c0,2.8,0.2,5,0.6,6.6c0.4,1.6,1.2,2.4,2.3,2.4
		c6.6-4.5,13.6-8,20.8-10.5c7.2-2.5,14-3.7,20.4-3.7c11.2,0,21.2,2.9,30.3,8.7c9,5.8,16.1,13.7,21.4,23.8
		c5.3,10.1,7.9,21.5,7.9,34.1c0,15-3.3,28.4-10,40.1c-6.7,11.7-15.8,20.8-27.5,27.2C1096.1,342.2,1082.5,345.5,1066.8,345.5z
		 M1072.6,331.9c5.8,0,10.7-2.5,14.8-7.6c4.1-5,7.2-11.7,9.5-20.1c2.3-8.4,3.4-17.5,3.4-27.4c0-8.6-1.1-17.3-3.4-26.1
		c-2.3-8.8-5.8-16.1-10.6-22.1c-4.8-5.9-11-8.9-18.5-8.9c-3.9,0-8.4,0.6-13.5,1.8c-5.2,1.2-9.3,3.1-12.6,5.6v68.6
		c0,6.9,1.4,13.1,4.3,18.7c2.9,5.6,6.7,9.9,11.4,12.9C1062.2,330.4,1067.2,331.9,1072.6,331.9z"/>
	<path class="st2" d="M1193,345.5c-5.8,0-11.2-1.4-16.1-4.2c-4.9-2.8-8.9-6.4-11.7-10.9c-2.9-4.5-4.3-9.4-4.3-14.8
		c0-7.3,2.3-13.4,6.9-18.3c4.6-4.9,11.4-9.3,20.4-13.2l28.6-12.6c4.3-1.9,6.9-3.6,7.9-5.2c1-1.5,1.4-4.3,1.4-8.4l0.3-18.3
		c0.2-6-0.9-10.8-3.2-14.3c-2.4-3.5-5.9-5.3-10.6-5.3c-2.8,0-5.6,0.6-8.4,1.8c-2.8,1.2-4.9,2.5-6.4,4c-0.6,0.9-1.1,1.9-1.4,3.1
		c-0.3,1.2-0.5,2.4-0.5,3.7c0,1.3,0.1,2.8,0.3,4.7c0.2,1.8,0.3,3.4,0.3,4.7c0,1.3-1.7,3-5.2,5c-3.4,2-7.4,3.9-11.9,5.5
		c-4.5,1.6-8.4,2.4-11.6,2.4c-1.5,0-2.8-0.6-4-1.9c-1.2-1.3-1.8-2.9-1.8-4.8c0-3.4,1.2-6.8,3.5-10.1c2.4-3.3,6.2-7.1,11.6-11.4
		c5.6-4.7,11.7-8.9,18.3-12.6c6.6-3.6,13.2-6.5,19.8-8.7c6.5-2.1,12.1-3.2,16.6-3.2c11.6,0,20.8,3.7,27.7,11.1
		c6.9,7.4,10.1,17.2,9.7,29.5l-1.6,65c-0.2,4.9,0.6,9.1,2.6,12.6c1.9,3.4,4.3,5.2,7.1,5.2c4.1,0,7.6-1.4,10.6-4.2
		c0.6-0.6,1.3-1,1.9-1c1.1,0,2,0.3,2.7,1c0.7,0.6,1.1,1.5,1.1,2.6c0,2.6-1.9,5.9-5.8,10c-4.1,3.9-8.4,6.8-12.9,8.9
		c-4.5,2-9.2,3.1-14.2,3.1c-12,0-22-6.1-29.9-18.3h-0.6c-7.1,6.4-13.5,11.1-19.2,14C1205.5,344,1199.4,345.5,1193,345.5z
		 M1212.3,324.5c2.4,0,4.3-0.4,5.8-1.1c1.5-0.7,3-2,4.5-3.7c0.6-0.9,1.2-2,1.6-3.4c0.4-1.4,0.6-3.1,0.6-5l1-23.2
		c0-2.1-0.3-3.5-1-4.2c-0.6-0.6-1.4-1-2.3-1c-0.4,0-1,0.1-1.6,0.3c-0.6,0.2-1.4,0.5-2.3,1c-6.2,3-10.8,6.1-13.8,9.2
		c-3,3.1-4.5,8.1-4.5,15c0,6.2,1.3,10.5,3.9,12.7S1209.5,324.5,1212.3,324.5z"/>
	<path class="st2" d="M1304,341.9c-1.9,0-3.5-0.4-4.7-1.1c-1.2-0.7-1.8-1.9-1.8-3.4c0-1.7,0.6-3.1,1.9-4c1.3-1,3.1-1.8,5.5-2.4
		c3.2-1.1,6.1-2.3,8.5-3.5c2.5-1.3,3.7-4.2,3.7-8.7V163.9c0-5.8-0.8-10.8-2.4-15.1c-1.6-4.3-5.1-7-10.5-8c-2.1-0.4-3.2-2-3.2-4.8
		c0-2.8,1-4.4,2.9-4.8c5.6-1.1,11.6-2.6,18-4.7c6.4-2,12.6-4.2,18.3-6.4c5.8-2.3,10.3-3.9,13.5-5c1.7-0.6,3.1-1,4.2-1
		c1.3,0,2.1,0.4,2.6,1.1c0.4,0.8,0.6,1.7,0.6,2.7c0,1.5-0.3,4.3-0.8,8.4c-0.5,4.1-0.9,8.7-1.1,13.8v178c0,4.7,1.2,7.7,3.7,8.9
		c2.5,1.2,5.3,2.3,8.5,3.4c2.4,0.9,4.2,1.7,5.5,2.6c1.3,0.9,1.9,2.1,1.9,3.9c0,1.5-0.6,2.6-1.8,3.4c-1.2,0.8-2.7,1.1-4.7,1.1
		c-4.1,0-8.1-0.1-12.1-0.3c-4-0.2-7.8-0.4-11.6-0.5c-3.8-0.1-7.6-0.2-11.4-0.2c-3.7,0-7.2,0.1-10.8,0.3c-3.5,0.2-7.1,0.5-10.8,0.8
		C1312.3,341.8,1308.3,341.9,1304,341.9z"/>
</g>
</svg>
